
<svg width="34px" height="34px" viewBox="675 2469 34 34" version="1.1" xmlns="http://www.w3.org/2000/svg" xmlns:xlink="http://www.w3.org/1999/xlink">
    <!-- Generator: Sketch 41.2 (35397) - http://www.bohemiancoding.com/sketch -->
    <desc>Created with Sketch.</desc>
    <defs></defs>
    <path d="M703.283115,2500.21373 L706.260704,2497.23698 L707.15414,2501.10715 L703.283115,2500.21373 Z M693.150862,2490.4857 L692.023905,2489.35876 L688.642237,2485.97714 L687.51528,2484.8502 L680.539145,2477.87416 L683.920016,2474.49254 L690.896151,2481.46858 L692.023905,2482.59552 L695.404776,2485.97714 L696.531733,2487.10408 L705.335388,2495.90761 L701.954517,2499.28922 L693.150862,2490.4857 Z M681.979323,2499.4024 L679.308578,2500.54687 L677.453164,2498.69148 L678.598452,2496.01918 L687.514483,2487.10408 L690.896151,2490.4857 L681.979323,2499.4024 Z M677.152695,2474.48776 C676.846647,2474.18092 676.847444,2473.67563 677.157477,2473.3648 L679.411391,2471.11092 C679.724612,2470.7985 680.225127,2470.79771 680.534363,2471.10614 L682.793059,2473.3648 L679.411391,2476.74642 L677.152695,2474.48776 Z M701.487475,2473.13208 L704.869143,2476.51291 L696.531733,2484.8502 L693.150862,2481.46778 L701.487475,2473.13208 Z M705.715556,2470.59447 C705.717947,2470.59288 705.711571,2470.59288 705.717947,2470.59926 L707.402007,2472.28329 C707.406789,2472.28807 707.406789,2472.28489 707.406789,2472.28568 L705.151281,2474.54036 L703.460845,2472.84995 L705.715556,2470.59447 Z M707.590099,2495.90761 L697.659487,2485.97714 L704.284146,2479.35257 L704.905008,2479.97422 C705.216635,2480.28585 705.216635,2480.79034 704.903414,2481.10356 L701.775989,2484.23014 C701.465159,2484.54176 701.465159,2485.04625 701.775989,2485.35708 C702.087616,2485.6687 702.592116,2485.6687 702.902946,2485.35708 L706.030371,2482.23129 C706.966048,2481.29563 706.966845,2479.78135 706.032762,2478.84728 L705.411103,2478.22563 L705.9961,2477.63985 L707.123057,2476.51291 L706.278238,2475.6681 L708.533746,2473.41262 C709.159391,2472.78539 709.153015,2471.78039 708.528964,2471.15555 L706.844905,2469.47152 C706.214478,2468.8411 705.210259,2468.84588 704.588599,2469.46753 L702.333091,2471.72301 L701.487475,2470.8774 L700.360518,2472.00435 L700.359721,2472.00435 L700.359721,2472.00514 L692.023905,2480.34084 L681.66132,2469.9792 C680.728034,2469.04672 679.218517,2469.04991 678.284434,2469.98398 L676.03052,2472.23786 C675.099625,2473.16874 675.094046,2474.68382 676.025738,2475.6147 L678.284434,2477.87336 L678.499624,2478.08855 L679.411391,2479.0011 L686.387526,2485.97714 L677.253914,2495.11062 L675.563479,2499.05571 L676.690436,2500.18265 L675,2501.87306 L676.126957,2503 L677.817393,2501.30959 L678.945147,2502.43653 L682.890293,2500.74612 L692.023905,2491.61264 L700.826763,2500.41617 L701.95372,2501.54311 L707.727183,2502.87567 C708.578378,2503.07173 709.120338,2502.53775 708.921885,2501.68019 L707.590099,2495.90761 Z" id="UX/UI" stroke="none" fill="#FFFFFF" fill-rule="evenodd"></path>
</svg>