
<svg width="37px" height="24px" viewBox="1068 2479 37 24" version="1.1" xmlns="http://www.w3.org/2000/svg" xmlns:xlink="http://www.w3.org/1999/xlink">
    <!-- Generator: Sketch 41.2 (35397) - http://www.bohemiancoding.com/sketch -->
    <desc>Created with Sketch.</desc>
    <defs></defs>
    <path d="M1099.49907,2497.4 C1099.55457,2497.0768 1099.6543,2496.7696 1099.77174,2496.472 C1099.86504,2496.2384 1099.97524,2496.0144 1100.10313,2495.8 C1100.34202,2495.3984 1100.63561,2495.036 1100.97826,2494.7216 C1101.22439,2494.4968 1101.49385,2494.2992 1101.78261,2494.1288 C1102.27246,2493.8408 1102.81057,2493.6264 1103.3913,2493.528 L1103.3913,2497.4 L1100.97826,2497.4 L1099.77174,2497.4 L1099.49907,2497.4 Z M1077.52348,2497.4 L1073.63043,2497.4 L1073.63043,2493.528 C1074.21198,2493.6264 1074.75009,2493.8408 1075.23913,2494.1288 C1075.93248,2494.5368 1076.5092,2495.1112 1076.91941,2495.8 C1077.20898,2496.2864 1077.42454,2496.8216 1077.52348,2497.4 L1077.52348,2497.4 Z M1100.10233,2482.2 C1099.81357,2481.7136 1099.598,2481.1776 1099.49907,2480.6 L1103.3913,2480.6 L1103.3913,2484.4712 C1102.81057,2484.3728 1102.27246,2484.1592 1101.78261,2483.8712 C1101.09007,2483.4632 1100.51335,2482.8888 1100.10233,2482.2 L1100.10233,2482.2 Z M1073.63043,2483 L1073.63043,2480.6 L1077.52348,2480.6 C1077.42454,2481.1776 1077.20898,2481.7136 1076.91941,2482.2 C1076.74809,2482.4872 1076.54941,2482.7552 1076.32339,2483 C1076.00728,2483.3416 1075.64291,2483.6336 1075.23913,2483.8712 C1075.02437,2483.9976 1074.79915,2484.108 1074.56348,2484.2 C1074.26426,2484.3168 1073.9562,2484.4168 1073.63043,2484.4712 L1073.63043,2484.2 L1073.63043,2483 Z M1099.36957,2501.4 L1069.6087,2501.4 L1069.6087,2484.6 L1072.02174,2484.6 L1072.02174,2485.3392 L1072.02174,2486.2 L1072.02174,2492.6608 L1072.02174,2497.4 C1072.02174,2498.2832 1072.74243,2499 1073.63043,2499 L1078.39539,2499 L1078.41148,2499 L1097.76087,2499 L1098.62715,2499 L1099.36957,2499 L1099.36957,2501.4 Z M1103.3913,2491.9168 C1102.82987,2491.988 1102.29015,2492.1288 1101.78261,2492.336 C1101.5035,2492.4496 1101.23646,2492.5856 1100.97826,2492.7376 C1100.5407,2492.9928 1100.1353,2493.2976 1099.77174,2493.6472 C1099.63178,2493.7824 1099.49746,2493.924 1099.36957,2494.0712 C1098.92637,2494.5832 1098.562,2495.1648 1098.29978,2495.8 C1098.09146,2496.304 1097.94989,2496.8416 1097.87911,2497.4 L1097.76087,2497.4 L1080.06522,2497.4 L1079.14907,2497.4 C1079.07748,2496.84 1078.92707,2496.3048 1078.71874,2495.8 C1078.07124,2494.2336 1076.81485,2492.9784 1075.23913,2492.3344 C1074.73239,2492.1272 1074.19267,2491.988 1073.63043,2491.9168 L1073.63043,2486.2 L1073.63043,2486.0832 C1074.19267,2486.012 1074.73239,2485.8712 1075.23913,2485.664 C1075.87778,2485.4032 1076.46254,2485.0416 1076.97733,2484.6 C1077.12613,2484.4728 1077.2685,2484.34 1077.40443,2484.2 C1077.75513,2483.8384 1078.06159,2483.4352 1078.31898,2483 C1078.4702,2482.7432 1078.60774,2482.4776 1078.72196,2482.2 C1078.93028,2481.696 1079.07185,2481.1592 1079.14343,2480.6 L1080.06522,2480.6 L1097.76087,2480.6 L1097.87911,2480.6 C1097.94989,2481.1592 1098.09146,2481.696 1098.29978,2482.2 C1098.4148,2482.4776 1098.55154,2482.7432 1098.70357,2483 C1099.25535,2483.9336 1100.03959,2484.7136 1100.97826,2485.2632 C1101.23646,2485.4136 1101.5035,2485.5496 1101.78261,2485.664 C1102.29015,2485.8712 1102.82987,2486.012 1103.3913,2486.0832 L1103.3913,2491.9168 Z M1103.3913,2479 L1098.62715,2479 L1078.39539,2479 L1073.63043,2479 C1072.74243,2479 1072.02174,2479.7168 1072.02174,2480.6 L1072.02174,2483 L1069.6087,2483 C1068.7207,2483 1068,2483.7168 1068,2484.6 L1068,2501.4 C1068,2502.2832 1068.7207,2503 1069.6087,2503 L1099.36957,2503 C1100.25837,2503 1100.97826,2502.2832 1100.97826,2501.4 L1100.97826,2499 L1103.3913,2499 C1104.28011,2499 1105,2498.2832 1105,2497.4 L1105,2492.6608 L1105,2485.3392 L1105,2480.6 C1105,2479.7168 1104.28011,2479 1103.3913,2479 Z M1088.91337,2493.4 C1086.69578,2493.4 1084.89163,2491.6056 1084.89163,2489.4 C1084.89163,2488.0872 1085.53993,2486.9296 1086.52526,2486.2 C1087.19528,2485.704 1088.01571,2485.4 1088.91337,2485.4 C1089.81102,2485.4 1090.63145,2485.704 1091.30147,2486.2 C1092.2868,2486.9296 1092.9351,2488.0872 1092.9351,2489.4 C1092.9351,2491.6056 1091.13095,2493.4 1088.91337,2493.4 Z M1091.79856,2484.6 C1091.54197,2484.4464 1091.27252,2484.312 1090.991,2484.2 C1090.34752,2483.9448 1089.64773,2483.8 1088.91337,2483.8 C1088.179,2483.8 1087.47921,2483.9448 1086.83573,2484.2 C1086.55421,2484.312 1086.28476,2484.4464 1086.02817,2484.6 C1085.34447,2485.008 1084.75489,2485.552 1084.29963,2486.2 C1083.66097,2487.108 1083.28293,2488.2104 1083.28293,2489.4 C1083.28293,2492.4872 1085.80858,2495 1088.91337,2495 C1092.01815,2495 1094.5438,2492.4872 1094.5438,2489.4 C1094.5438,2488.2104 1094.16576,2487.108 1093.5271,2486.2 C1093.07184,2485.552 1092.48226,2485.008 1091.79856,2484.6 Z" id="SALARY" stroke="none" fill="#FFFFFF" fill-rule="evenodd"></path>
</svg>