
<svg width="34px" height="39px" viewBox="69 3 34 39" version="1.1" xmlns="http://www.w3.org/2000/svg" xmlns:xlink="http://www.w3.org/1999/xlink">
    <!-- Generator: Sketch 41.2 (35397) - http://www.bohemiancoding.com/sketch -->
    <desc>Created with Sketch.</desc>
    <defs></defs>
    <path d="M101.380952,15.9361702 L98.952381,15.9361702 L94.0952381,15.9361702 L89.2380952,15.9361702 L87.6190476,15.9361702 L84.3809524,15.9361702 L82.7619048,15.9361702 L77.9047619,15.9361702 L73.047619,15.9361702 L70.6190476,15.9361702 L70.6190476,15.1276596 L70.6190476,10.2830638 C70.6190476,9.69365957 70.9315238,9.1786383 71.4010476,8.89404255 C71.5572857,8.79944681 71.7305238,8.7307234 71.9167143,8.6927234 C72.0219524,8.67089362 72.1320476,8.65957447 72.2445714,8.65957447 L73.047619,8.65957447 L77.0952381,8.65957447 L77.0952381,11.8911915 C77.0952381,12.3334468 77.4570952,12.7021277 77.9047619,12.7021277 C78.3556667,12.7021277 78.7142857,12.3391064 78.7142857,11.8911915 L78.7142857,8.65957447 L82.7619048,8.65957447 L89.2380952,8.65957447 L93.2857143,8.65957447 L93.2857143,11.8911915 C93.2857143,12.3334468 93.6475714,12.7021277 94.0952381,12.7021277 C94.5461429,12.7021277 94.9047619,12.3391064 94.9047619,11.8911915 L94.9047619,8.65957447 L98.952381,8.65957447 L99.7554286,8.65957447 C100.413571,8.65957447 100.974571,9.05089362 101.229571,9.61361702 C101.266,9.69285106 101.296762,9.77693617 101.319429,9.86344681 C101.328333,9.89417021 101.341286,9.9232766 101.347762,9.95561702 C101.352619,9.97582979 101.351,9.99846809 101.354238,10.0202979 C101.368,10.106 101.380952,10.1925106 101.380952,10.2830638 L101.380952,15.1276596 L101.380952,15.9361702 Z M101.380952,21.5957447 L101.380952,31.2978723 L101.380952,37.7594894 C101.380952,38.6577447 100.655619,39.3829787 99.7554286,39.3829787 L84.3809524,39.3829787 L72.2445714,39.3829787 C71.3451905,39.3829787 70.6190476,38.6577447 70.6190476,37.7594894 L70.6190476,31.2978723 L70.6190476,24.8297872 L70.6190476,21.5957447 L70.6190476,17.5531915 L77.9047619,17.5531915 L84.3809524,17.5531915 L87.6190476,17.5531915 L94.0952381,17.5531915 L101.380952,17.5531915 L101.380952,21.5957447 Z M102.944952,9.73246809 C102.681857,8.20438298 101.359095,7.04255319 99.7554286,7.04255319 L98.952381,7.04255319 L94.9047619,7.04255319 L94.9047619,3.81093617 C94.9047619,3.36868085 94.5429048,3 94.0952381,3 C93.6443333,3 93.2857143,3.36302128 93.2857143,3.81093617 L93.2857143,7.04255319 L89.2380952,7.04255319 L82.7619048,7.04255319 L78.7142857,7.04255319 L78.7142857,3.81093617 C78.7142857,3.36868085 78.3524286,3 77.9047619,3 C77.4538571,3 77.0952381,3.36302128 77.0952381,3.81093617 L77.0952381,7.04255319 L73.047619,7.04255319 L72.2445714,7.04255319 C72.0195238,7.04255319 71.8009524,7.06519149 71.5896667,7.10804255 C71.4050952,7.14604255 71.225381,7.19940426 71.0537619,7.26651064 C69.85,7.74110638 69,8.91182979 69,10.2822553 L69,10.2830638 L69,15.1276596 L69,15.9361702 L69,17.5531915 L69,21.5957447 L69,24.8297872 L69,31.2978723 L69,37.7594894 C69,39.5519574 70.4530952,41 72.2445714,41 L84.3809524,41 L99.7554286,41 C101.550143,41 103,39.5487234 103,37.7594894 L103,31.2978723 L103,21.5957447 L103,17.5531915 L103,15.9361702 L103,15.1276596 L103,10.2830638 L103,10.2822553 C103,10.0930638 102.975714,9.91195745 102.944952,9.73246809 L102.944952,9.73246809 Z M98.1428571,20.787234 L98.1428571,21.5957447 L98.1428571,25.6382979 L94.0952381,25.6382979 L93.2857143,25.6382979 L93.2857143,21.5957447 L93.2857143,20.787234 L94.0952381,20.787234 L98.1428571,20.787234 Z M93.2857143,19.1702128 C92.3847143,19.1702128 91.6666667,19.8946383 91.6666667,20.787234 L91.6666667,21.5957447 L91.6666667,25.6382979 C91.6666667,26.5373617 92.3911905,27.2553191 93.2857143,27.2553191 L94.0952381,27.2553191 L98.1428571,27.2553191 C99.0438571,27.2553191 99.7619048,26.5308936 99.7619048,25.6382979 L99.7619048,21.5957447 L99.7619048,20.787234 C99.7619048,19.8881702 99.037381,19.1702128 98.1428571,19.1702128 L94.0952381,19.1702128 L93.2857143,19.1702128 Z M88.4285714,25.6382979 L87.6190476,25.6382979 L84.3809524,25.6382979 L83.5714286,25.6382979 L83.5714286,24.8297872 L83.5714286,21.5957447 L83.5714286,20.787234 L84.3809524,20.787234 L87.6190476,20.787234 L88.4285714,20.787234 L88.4285714,21.5957447 L88.4285714,25.6382979 Z M88.4285714,19.1702128 L87.6190476,19.1702128 L84.3809524,19.1702128 L83.5714286,19.1702128 C82.6704286,19.1702128 81.952381,19.8946383 81.952381,20.787234 L81.952381,21.5957447 L81.952381,24.8297872 L81.952381,25.6382979 C81.952381,26.5373617 82.6769048,27.2553191 83.5714286,27.2553191 L84.3809524,27.2553191 L87.6190476,27.2553191 L88.4285714,27.2553191 C89.3295714,27.2553191 90.047619,26.5308936 90.047619,25.6382979 L90.047619,21.5957447 L90.047619,20.787234 C90.047619,19.8881702 89.3230952,19.1702128 88.4285714,19.1702128 L88.4285714,19.1702128 Z M78.7142857,24.8297872 L78.7142857,25.6382979 L77.9047619,25.6382979 L73.8571429,25.6382979 L73.8571429,24.8297872 L73.8571429,21.5957447 L73.8571429,20.787234 L77.9047619,20.787234 L78.7142857,20.787234 L78.7142857,21.5957447 L78.7142857,24.8297872 Z M78.7142857,19.1702128 L77.9047619,19.1702128 L73.8571429,19.1702128 C72.9561429,19.1702128 72.2380952,19.8946383 72.2380952,20.787234 L72.2380952,21.5957447 L72.2380952,24.8297872 L72.2380952,25.6382979 C72.2380952,26.5373617 72.962619,27.2553191 73.8571429,27.2553191 L77.9047619,27.2553191 L78.7142857,27.2553191 C79.6152857,27.2553191 80.3333333,26.5308936 80.3333333,25.6382979 L80.3333333,24.8297872 L80.3333333,21.5957447 L80.3333333,20.787234 C80.3333333,19.8881702 79.6088095,19.1702128 78.7142857,19.1702128 L78.7142857,19.1702128 Z M78.7142857,35.3404255 L73.8571429,35.3404255 L73.8571429,31.2978723 L73.8571429,30.4893617 L77.9047619,30.4893617 L78.7142857,30.4893617 L78.7142857,31.2978723 L78.7142857,35.3404255 Z M78.7142857,28.8723404 L77.9047619,28.8723404 L73.8571429,28.8723404 C72.9561429,28.8723404 72.2380952,29.596766 72.2380952,30.4893617 L72.2380952,31.2978723 L72.2380952,35.3404255 C72.2380952,36.2394894 72.962619,36.9574468 73.8571429,36.9574468 L78.7142857,36.9574468 C79.6152857,36.9574468 80.3333333,36.2330213 80.3333333,35.3404255 L80.3333333,31.2978723 L80.3333333,30.4893617 C80.3333333,29.5902979 79.6088095,28.8723404 78.7142857,28.8723404 L78.7142857,28.8723404 Z" id="CALENDAR" stroke="none" fill="#FFFFFF" fill-rule="evenodd"></path>
</svg>