
<svg width="37px" height="36px" viewBox="873 2473 37 36" version="1.1" xmlns="http://www.w3.org/2000/svg" xmlns:xlink="http://www.w3.org/1999/xlink">
    <!-- Generator: Sketch 41.2 (35397) - http://www.bohemiancoding.com/sketch -->
    <desc>Created with Sketch.</desc>
    <defs></defs>
    <path d="M883.756543,2493.64629 L886.673913,2493.64629 L886.673913,2494.44038 L886.673913,2495.23447 L878.630435,2495.23447 L878.630435,2494.44038 L878.630435,2493.64629 L883.756543,2493.64629 Z M884.26087,2488.88176 L894.717391,2488.88176 L894.717391,2489.67585 L894.717391,2490.46994 L893.918674,2490.46994 L890.695652,2490.46994 L884.26087,2490.46994 L882.652174,2490.46994 L878.630435,2490.46994 L878.630435,2489.67585 L878.630435,2488.88176 L882.652174,2488.88176 L884.26087,2488.88176 Z M908.391304,2491.27118 C908.391304,2492.1415 907.670609,2492.8522 906.785826,2492.8522 L904.71463,2492.8522 L904.369565,2492.8522 L903.105935,2492.8522 L903.105935,2494.44038 L903.105935,2496.97829 L900.347826,2494.48485 L900.347826,2494.44038 L900.347826,2492.8522 L900.347826,2491.26403 L900.347826,2489.67585 L900.347826,2485.69826 C900.347826,2483.95048 898.907239,2482.52906 897.133652,2482.52906 L884.26087,2482.52906 L884.26087,2478.55862 L884.26087,2476.16921 C884.26087,2475.29889 884.980761,2474.58818 885.866348,2474.58818 L906.785826,2474.58818 C907.676239,2474.58818 908.391304,2475.29412 908.391304,2476.16921 L908.391304,2491.27118 Z M898.73913,2500.80023 C898.73913,2501.67532 898.024065,2502.38126 897.133652,2502.38126 L887.15813,2502.38126 L884.758761,2502.38126 L883.451696,2503.54857 L882.979543,2503.96944 L880.23913,2506.41603 L880.23913,2503.96944 L880.23913,2503.54857 L880.23913,2502.38126 L878.630435,2502.38126 L876.214174,2502.38126 C875.328587,2502.38126 874.608696,2501.67055 874.608696,2500.80023 L874.608696,2499.20491 L874.608696,2494.44038 L874.608696,2489.67585 L874.608696,2485.69826 C874.608696,2485.41001 874.691543,2485.14399 874.827478,2484.91132 C875.104174,2484.43805 875.617348,2484.11723 876.214174,2484.11723 L878.630435,2484.11723 L882.652174,2484.11723 L884.26087,2484.11723 L897.133652,2484.11723 C897.726457,2484.11723 898.23963,2484.43963 898.517935,2484.91132 C898.65387,2485.14399 898.73913,2485.4108 898.73913,2485.69826 L898.73913,2489.67585 L898.73913,2491.26403 L898.73913,2492.8522 L898.73913,2493.03008 L898.73913,2494.44038 L898.73913,2495.18365 L898.73913,2500.80023 Z M906.785826,2473 L885.866348,2473 C884.092761,2473 882.652174,2474.42142 882.652174,2476.16921 L882.652174,2478.55862 L882.652174,2482.52906 L878.630435,2482.52906 L876.214174,2482.52906 C874.435761,2482.52906 873,2483.94571 873,2485.69826 L873,2500.80023 C873,2502.54802 874.440587,2503.96944 876.214174,2503.96944 L878.630435,2503.96944 L878.630435,2508.20431 C878.630435,2508.89279 879.4565,2509.25489 879.9745,2508.79353 L885.379717,2503.96944 L897.133652,2503.96944 C897.709565,2503.96944 898.241239,2503.80903 898.708565,2503.54857 C899.683435,2503.00462 900.347826,2501.98501 900.347826,2500.80023 L900.347826,2496.63842 L903.366543,2499.3677 C903.670587,2499.64245 904.081609,2499.62498 904.369565,2499.42646 C904.570652,2499.28829 904.71463,2499.06594 904.71463,2498.78246 L904.71463,2494.44038 L906.785826,2494.44038 C908.559413,2494.44038 910,2493.01896 910,2491.27118 L910,2476.16921 C910,2474.41665 908.564239,2473 906.785826,2473 L906.785826,2473 Z" id="COMMUNICATION" stroke="none" fill="#FFFFFF" fill-rule="evenodd"></path>
</svg>