
<svg width="31px" height="42px" viewBox="268 0 31 42" version="1.1" xmlns="http://www.w3.org/2000/svg" xmlns:xlink="http://www.w3.org/1999/xlink">
    <!-- Generator: Sketch 41.2 (35397) - http://www.bohemiancoding.com/sketch -->
    <desc>Created with Sketch.</desc>
    <defs></defs>
    <path d="M280.226981,14.7754091 L280.226981,10.9705909 C280.226981,10.185 280.855441,9.54545455 281.628569,9.54545455 C282.401698,9.54545455 283.030158,10.185 283.030158,10.9705909 L283.030158,15.2526818 L283.030158,16.9059545 L283.030158,16.9603636 L283.030158,26.4514091 C283.030158,26.9792727 283.45101,27.4059545 283.96956,27.4059545 C284.48905,27.4059545 284.908963,26.9792727 284.908963,26.4514091 L284.908963,18.8694545 C285.364573,18.8694545 285.813607,18.7014545 286.164944,18.3797727 C286.287066,18.2690455 286.493735,18.1363636 286.787768,18.1363636 C287.284712,18.1363636 287.686776,18.5162727 287.724352,19.0202727 C287.734685,19.1500909 287.771322,19.2703636 287.805141,19.3925455 C287.756292,19.5080455 287.72717,19.635 287.72717,19.7695909 L287.72717,27.4059545 C287.72717,27.9338182 288.148023,28.3605 288.666573,28.3605 C289.186062,28.3605 289.605975,27.9338182 289.605975,27.4059545 L289.605975,20.7842727 C290.061585,20.7823636 290.508741,20.6134091 290.859138,20.2917273 C290.98126,20.1790909 291.188868,20.0454545 291.48478,20.0454545 C292.011785,20.0454545 292.424183,20.4683182 292.424183,21.0085909 L292.424183,22.6332273 L292.424183,22.6847727 L292.424183,28.3605 C292.424183,28.8883636 292.845035,29.3150455 293.363585,29.3150455 C293.883075,29.3150455 294.302988,28.8883636 294.302988,28.3605 L294.302988,24.5938636 C294.756719,24.5938636 295.204814,24.4268182 295.556151,24.1070455 C295.678273,23.9963182 295.885881,23.8636364 296.181793,23.8636364 C296.700343,23.8636364 297.121195,24.2912727 297.121195,24.8172273 L297.121195,31.5076364 C297.121195,36.2402727 293.331645,40.0909091 288.674088,40.0909091 C285.60506,40.0909091 282.772762,38.3956364 281.28193,35.6646818 C281.238717,35.5854545 281.186111,35.5043182 281.131625,35.4327273 L281.10814,35.4002727 L272.923127,23.4083182 C272.557699,22.8737727 272.635669,21.9335455 273.068734,21.4877727 C273.246281,21.3102273 273.479253,21.2119091 273.726316,21.2119091 C273.974318,21.2119091 274.208229,21.3121364 274.386716,21.4935 L277.019861,24.1671818 C277.379652,24.5327727 277.859687,24.7265455 278.348176,24.7265455 C278.590542,24.7265455 278.834786,24.6788182 279.067758,24.5814545 C279.769492,24.2855455 280.226981,23.5896818 280.226981,22.8174545 L280.226981,14.7754091 Z M276.426158,13.3636364 L276.426158,13.3645909 L276.426158,13.3636364 Z M278.348176,13.3645909 L278.348176,22.8174545 L275.715031,20.1428182 C275.163601,19.5825 274.444959,19.3028182 273.726316,19.3028182 C273.010491,19.3028182 272.296545,19.5796364 271.747934,20.1304091 C270.665742,21.2415 270.493832,23.2011818 271.379688,24.4974545 L279.564702,36.4884545 C279.589127,36.5228182 279.613551,36.5581364 279.638915,36.5915455 C281.401234,39.8179091 284.78684,42 288.674088,42 C294.37814,42 299,37.3017273 299,31.5076364 L299,31.5038182 L299,31.5009545 L299,24.8172273 C299,23.2355455 297.738382,21.9545455 296.181793,21.9545455 C295.461271,21.9545455 294.80275,22.2304091 294.302988,22.6847727 L294.302988,22.6332273 L294.302988,21.0085909 C294.302988,19.4116364 293.04137,18.1363636 291.48478,18.1363636 C290.760501,18.1363636 290.098222,18.4160455 289.59846,18.8761364 C289.486671,17.3860909 288.271084,16.2272727 286.787768,16.2272727 C286.067246,16.2272727 285.408725,16.5040909 284.908963,16.9603636 L284.908963,16.9059545 L284.908963,13.3645909 L278.348176,13.3645909 Z M286.87795,13.3645909 L286.87795,13.3636364 L286.87795,13.3645909 Z M284.908963,13.3636364 L284.908963,10.9705909 C284.908963,9.13309091 283.440677,7.63636364 281.628569,7.63636364 C279.82022,7.63636364 278.348176,9.12927273 278.348176,10.9705909 L278.348176,13.3636364 L284.908963,13.3636364 Z M274.578636,11.4545455 C271.985885,11.4545455 269.878805,9.31254545 269.878805,6.68181818 C269.878805,4.0425 271.97743,1.90909091 274.578636,1.90909091 L291.482244,1.90909091 C294.075934,1.90909091 296.182074,4.05109091 296.182074,6.68181818 C296.182074,9.32113636 294.083449,11.4545455 291.482244,11.4545455 L286.878232,11.4545455 L286.878232,13.3636364 L291.482244,13.3636364 C295.123368,13.3636364 298.060879,10.3720909 298.060879,6.68181818 C298.060879,2.99918182 295.115853,0 291.482244,0 L274.578636,0 C270.937512,0 268,2.99154545 268,6.68181818 C268,10.3644545 270.945027,13.3636364 274.578636,13.3636364 L276.42644,13.3636364 L276.42644,11.4545455 L274.578636,11.4545455 Z" id="UX" stroke="none" fill="#FFFFFF" fill-rule="evenodd"></path>
</svg>