<?xml version="1.0" encoding="utf-8"?>
<!-- Generator: Adobe Illustrator 16.0.4, SVG Export Plug-In . SVG Version: 6.00 Build 0)  -->
<!DOCTYPE svg PUBLIC "-//W3C//DTD SVG 1.1//EN" "http://www.w3.org/Graphics/SVG/1.1/DTD/svg11.dtd">
<svg version="1.1" id="Capa_1" xmlns="http://www.w3.org/2000/svg" xmlns:xlink="http://www.w3.org/1999/xlink" x="0px" y="0px"
	 width="86px" height="27px" viewBox="0 0 86 27" enable-background="new 0 0 86 27" xml:space="preserve">
<g>
	<g>
		<path fill="#FFFFFF" d="M11.806,24.476C10.049,20.21,9.43,15.793,9.43,11.237c0-1.964,0.125-3.934,0.453-5.87h1.676
			c-0.404,1.843-0.53,3.732-0.53,5.614c0,3.955,0.49,8.159,1.635,11.969c1.145-3.81,1.634-8.014,1.634-11.969
			c0-1.882-0.124-3.771-0.529-5.614h1.676c0.327,1.937,0.453,3.906,0.453,5.87c0,4.556-0.619,8.973-2.376,13.238H11.806z"/>
		<circle fill="#FFFFFF" cx="18.903" cy="10.346" r="0.373"/>
		<circle fill="#FFFFFF" cx="18.903" cy="11.502" r="0.373"/>
		<circle fill="#FFFFFF" cx="19.691" cy="12.402" r="0.373"/>
		<circle fill="#FFFFFF" cx="18.669" cy="15.417" r="0.374"/>
		<circle fill="#FFFFFF" cx="18.615" cy="16.598" r="0.372"/>
		<circle fill="#FFFFFF" cx="19.363" cy="17.539" r="0.372"/>
		<path fill="#FFFFFF" d="M19.207,14.421c0.151-0.139,0.386-0.127,0.525,0.025c0.138,0.152,0.127,0.387-0.024,0.524
			c-0.152,0.141-0.388,0.129-0.525-0.023S19.055,14.56,19.207,14.421z"/>
		<circle fill="#FFFFFF" cx="17.875" cy="20.467" r="0.372"/>
		<circle fill="#FFFFFF" cx="17.778" cy="21.767" r="0.372"/>
		<circle fill="#FFFFFF" cx="18.751" cy="19.839" r="0.372"/>
		<circle fill="#FFFFFF" cx="20.669" cy="8.488" r="0.372"/>
		<circle fill="#FFFFFF" cx="21.012" cy="7.185" r="0.372"/>
		<circle fill="#FFFFFF" cx="20.961" cy="5.774" r="0.373"/>
		<circle fill="#FFFFFF" cx="20.505" cy="4.469" r="0.372"/>
		<circle fill="#FFFFFF" cx="19.834" cy="9.484" r="0.373"/>
		<circle fill="#FFFFFF" cx="6.434" cy="10.346" r="0.373"/>
		<circle fill="#FFFFFF" cx="6.434" cy="11.502" r="0.372"/>
		<circle fill="#FFFFFF" cx="5.646" cy="12.402" r="0.372"/>
		<circle fill="#FFFFFF" cx="6.669" cy="15.417" r="0.373"/>
		<circle fill="#FFFFFF" cx="6.723" cy="16.598" r="0.372"/>
		<circle fill="#FFFFFF" cx="5.974" cy="17.539" r="0.372"/>
		<path fill="#FFFFFF" d="M6.132,14.421c-0.152-0.139-0.387-0.127-0.525,0.025c-0.14,0.152-0.129,0.387,0.023,0.524
			c0.151,0.141,0.388,0.129,0.525-0.023S6.283,14.56,6.132,14.421z"/>
		<circle fill="#FFFFFF" cx="7.463" cy="20.467" r="0.372"/>
		<circle fill="#FFFFFF" cx="7.56" cy="21.767" r="0.372"/>
		<circle fill="#FFFFFF" cx="6.586" cy="19.839" r="0.372"/>
		<circle fill="#FFFFFF" cx="4.669" cy="8.488" r="0.372"/>
		<circle fill="#FFFFFF" cx="4.326" cy="7.185" r="0.373"/>
		<circle fill="#FFFFFF" cx="4.377" cy="5.774" r="0.372"/>
		<circle fill="#FFFFFF" cx="4.832" cy="4.469" r="0.373"/>
		<circle fill="#FFFFFF" cx="5.504" cy="9.484" r="0.372"/>
		<g>
			<path fill="#FFFFFF" d="M10.236,20.114l-2.124-1.497c-0.17-0.135-0.197-0.383-0.062-0.553l1.421-1.662
				c0.293-0.322,0.271-0.822-0.052-1.115l-1.779-1.621c-0.161-0.146-0.173-0.395-0.026-0.556l1.622-1.777
				c0.295-0.322,0.271-0.821-0.051-1.114L6.83,8.065c-0.322-0.294-0.315-0.77-0.052-1.114L9.23,3.677
				c0.241-0.315,0.227-0.685-0.042-0.929C9.054,2.626,8.789,2.483,8.305,2.535C5.993,2.784,4.439,4.812,4.696,7.156
				c0.127,1.179,0.548,1.6,0.778,1.812l1.773,1.619c0.162,0.146,0.173,0.395,0.026,0.557l-1.621,1.777
				c-0.294,0.322-0.27,0.821,0.052,1.114l1.778,1.622c0.16,0.147,0.172,0.396,0.025,0.556l-1.427,1.79
				c-0.273,0.339-0.218,0.837,0.122,1.107l2.129,1.52c0.172,0.135,0.2,0.382,0.066,0.553l-0.917,1.37
				c-0.254,0.354-0.172,0.847,0.183,1.101s0.847,0.172,1.101-0.182l1.604-2.248C10.64,20.881,10.58,20.386,10.236,20.114z
				 M7.243,3.557c0.119-0.129,0.318-0.138,0.448-0.021C7.82,3.654,7.83,3.854,7.713,3.984C7.594,4.113,7.395,4.122,7.265,4.005
				C7.136,3.888,7.126,3.687,7.243,3.557z"/>
			<path fill="#FFFFFF" d="M17.033,2.535c-0.485-0.052-0.749,0.091-0.883,0.213c-0.269,0.244-0.284,0.613-0.043,0.929l2.452,3.274
				c0.263,0.345,0.27,0.82-0.052,1.114l-2.355,2.153c-0.322,0.293-0.347,0.792-0.052,1.114l1.623,1.777
				c0.146,0.161,0.135,0.409-0.026,0.556l-1.778,1.621c-0.323,0.293-0.346,0.793-0.053,1.115l1.422,1.662
				c0.135,0.17,0.108,0.418-0.062,0.553l-2.123,1.497c-0.344,0.271-0.404,0.767-0.136,1.109l1.605,2.248
				c0.254,0.354,0.747,0.436,1.101,0.182c0.355-0.254,0.436-0.747,0.183-1.101l-0.918-1.37c-0.134-0.171-0.104-0.418,0.068-0.553
				l2.128-1.52c0.34-0.271,0.396-0.769,0.124-1.107l-1.429-1.79c-0.147-0.16-0.136-0.408,0.025-0.556l1.779-1.622
				c0.321-0.293,0.344-0.792,0.051-1.114l-1.622-1.777c-0.146-0.162-0.135-0.411,0.026-0.557l1.774-1.619
				c0.23-0.212,0.649-0.633,0.778-1.812C20.898,4.812,19.346,2.784,17.033,2.535z M18.073,4.005c-0.13,0.117-0.33,0.108-0.449-0.021
				c-0.115-0.13-0.107-0.33,0.021-0.448c0.131-0.117,0.33-0.108,0.448,0.021C18.211,3.687,18.202,3.888,18.073,4.005z"/>
		</g>
	</g>
	<path fill="#FFFFFF" d="M27.392,18.354h3.604v-1.4h-3.604V14.94h3.705V13.56h-5.232v8.268h5.353v-1.399h-3.825V18.354z
		 M33.569,14.131h-1.532v7.696h5.388v-1.312h-3.855V14.131z M44.437,17.405c0.207-0.134,0.391-0.287,0.524-0.477
		c0.227-0.309,0.325-0.69,0.325-1.128c0-0.699-0.236-1.275-0.715-1.67c-0.475-0.397-1.128-0.578-1.948-0.578h-2.521v8.274h2.955
		c0.849,0,1.546-0.207,2.075-0.628c0.522-0.422,0.805-1.008,0.794-1.718c0-0.549-0.179-1.035-0.516-1.423
		C45.152,17.773,44.827,17.557,44.437,17.405 M41.612,14.952h0.895c0.469,0,0.776,0.083,0.944,0.222
		c0.083,0.072,0.143,0.149,0.191,0.269c0.04,0.112,0.064,0.256,0.064,0.431c0,0.382-0.113,0.619-0.343,0.795
		c-0.221,0.165-0.613,0.271-1.176,0.271h-0.576V14.952z M44.032,20.167c-0.198,0.15-0.563,0.255-1.096,0.245h-1.324v-2.068h1.139
		c0.598,0,1.012,0.103,1.239,0.271c0.226,0.17,0.345,0.399,0.345,0.789C44.335,19.785,44.233,20.012,44.032,20.167 M57.961,17.32
		L57.961,17.32l-0.163-0.09c-0.439-0.254-0.758-0.484-0.965-0.684c-0.104-0.103-0.174-0.189-0.214-0.267
		c-0.05-0.08-0.062-0.138-0.062-0.185c0.004-0.191,0.068-0.32,0.242-0.447c0.177-0.126,0.406-0.197,0.717-0.197
		c0.264,0,0.52,0.046,0.777,0.15c0.266,0.112,0.559,0.279,0.876,0.526l0.311,0.229v-1.646l-0.095-0.057
		c-0.301-0.164-0.604-0.291-0.908-0.38c-0.301-0.08-0.603-0.129-0.914-0.129c-0.688,0-1.279,0.193-1.739,0.575
		c-0.453,0.381-0.692,0.896-0.692,1.491c0,0.433,0.12,0.812,0.364,1.131c0.137,0.167,0.338,0.343,0.607,0.539
		c0.277,0.211,0.633,0.439,1.064,0.704c0.271,0.156,0.488,0.3,0.659,0.421c0.17,0.119,0.287,0.221,0.344,0.285
		c0.116,0.142,0.162,0.285,0.174,0.477c-0.012,0.23-0.082,0.373-0.254,0.509c-0.168,0.127-0.423,0.203-0.771,0.203
		c-0.326,0-0.629-0.068-0.917-0.218c-0.282-0.147-0.596-0.401-0.93-0.748l-0.334-0.359v1.91l0.083,0.053
		c0.314,0.248,0.647,0.431,1,0.542c0.356,0.122,0.747,0.178,1.164,0.178c0.693,0,1.283-0.193,1.738-0.573
		c0.458-0.383,0.697-0.894,0.697-1.479c0-0.502-0.119-0.94-0.373-1.297C59.194,18.121,58.703,17.747,57.961,17.32 M67.583,20.555
		c0.572-0.685,0.859-1.492,0.859-2.406c0-0.558-0.106-1.084-0.304-1.569c-0.204-0.477-0.508-0.913-0.906-1.304
		c-0.381-0.372-0.828-0.668-1.327-0.866c-0.51-0.199-1.032-0.301-1.591-0.301c-0.547,0-1.073,0.102-1.571,0.301
		c-0.495,0.198-0.941,0.484-1.339,0.866c-0.382,0.373-0.683,0.804-0.888,1.288c-0.217,0.493-0.321,0.993-0.321,1.513
		c0,0.944,0.288,1.785,0.853,2.497c0.558,0.705,1.301,1.174,2.209,1.403c0.677,0.479,1.313,0.846,1.915,1.097
		c0.624,0.265,1.188,0.391,1.704,0.391h0.15c0.048,0,0.088-0.004,0.125-0.013l0.061-0.009l1.133-0.995l-0.087-0.238l-0.062-0.151
		l-0.149,0.032c-0.147,0.033-0.271,0.049-0.393,0.062c-0.112,0.02-0.214,0.02-0.311,0.02c-0.295,0-0.603-0.043-0.929-0.121
		c-0.2-0.056-0.43-0.137-0.674-0.231C66.486,21.541,67.114,21.128,67.583,20.555 M66.741,18.966
		c-0.137,0.317-0.318,0.604-0.565,0.843l-0.009,0.007c-0.255,0.265-0.541,0.452-0.85,0.589c-0.32,0.126-0.652,0.196-1.003,0.196
		c-0.349,0-0.678-0.07-1.002-0.204c-0.325-0.143-0.603-0.333-0.852-0.581v-0.007c-0.246-0.239-0.434-0.525-0.562-0.843
		c-0.139-0.319-0.2-0.651-0.2-1.004c0-0.355,0.062-0.69,0.2-1.015c0.128-0.317,0.315-0.597,0.556-0.838
		c0.263-0.254,0.545-0.443,0.867-0.578c0.328-0.137,0.651-0.198,0.992-0.198c0.351,0,0.683,0.062,1.003,0.198
		c0.315,0.126,0.595,0.317,0.845,0.571c0.261,0.262,0.449,0.547,0.579,0.866c0.135,0.31,0.197,0.638,0.197,0.993
		C66.938,18.314,66.876,18.646,66.741,18.966 M74.331,18.861c-0.007,0.493-0.163,0.858-0.517,1.15
		c-0.34,0.288-0.802,0.449-1.406,0.449c-0.357,0-0.665-0.064-0.929-0.175c-0.273-0.114-0.502-0.287-0.702-0.518
		c-0.1-0.119-0.173-0.262-0.212-0.43c-0.047-0.165-0.073-0.484-0.073-0.947v-4.253h-1.423v4.295c0,0.587,0.04,1.024,0.128,1.335
		c0.089,0.305,0.229,0.58,0.437,0.824c0.327,0.408,0.725,0.709,1.2,0.923c0.471,0.207,1.001,0.312,1.574,0.312
		c0.968,0,1.782-0.27,2.402-0.81c0.628-0.537,0.945-1.266,0.935-2.124v-4.755h-1.414V18.861z M78.188,20.501v-1.887h3.625v-1.319
		h-3.625v-1.811h3.738v-1.312h-5.271v7.639h5.392v-1.311H78.188z M53.422,15.218c-0.389-0.369-0.834-0.648-1.333-0.848
		c-0.511-0.191-1.041-0.293-1.602-0.293c-0.547,0-1.069,0.102-1.572,0.293c-0.501,0.189-0.955,0.479-1.342,0.848
		c-0.391,0.36-0.692,0.782-0.908,1.26c-0.207,0.476-0.317,0.978-0.317,1.484c0,0.535,0.104,1.052,0.31,1.526
		c0.207,0.479,0.511,0.908,0.916,1.289c0.379,0.358,0.826,0.646,1.334,0.843c0.499,0.191,1.033,0.293,1.58,0.293
		c0.561,0,1.091-0.095,1.592-0.285c0.502-0.197,0.945-0.475,1.352-0.851c0.391-0.365,0.685-0.788,0.899-1.256
		c0.207-0.476,0.31-0.979,0.31-1.496c0-0.548-0.103-1.057-0.303-1.523C54.128,16.023,53.821,15.594,53.422,15.218 M52.929,18.972
		c-0.135,0.312-0.316,0.59-0.563,0.83c-0.255,0.245-0.542,0.438-0.852,0.556c-0.325,0.123-0.659,0.19-1.026,0.19
		c-0.357,0-0.69-0.067-1.018-0.19c-0.325-0.135-0.604-0.32-0.848-0.556c-0.248-0.24-0.439-0.519-0.567-0.83
		c-0.134-0.309-0.198-0.628-0.198-0.978c0-0.34,0.064-0.668,0.198-0.985c0.137-0.31,0.319-0.579,0.567-0.819
		c0.259-0.239,0.547-0.429,0.871-0.563c0.317-0.129,0.653-0.193,0.994-0.193c0.358,0,0.692,0.064,1.01,0.193
		c0.319,0.127,0.604,0.317,0.854,0.563c0.262,0.255,0.453,0.531,0.586,0.843c0.126,0.303,0.19,0.622,0.19,0.962
		C53.127,18.344,53.062,18.663,52.929,18.972"/>
	<path fill="#FFFFFF" d="M28.073,10.855c0.684,0,1.226-0.217,1.625-0.646c0.395-0.428,0.603-1.01,0.603-1.733V5.32h-0.455v3.182
		c0,0.579-0.16,1.041-0.474,1.383c-0.328,0.342-0.757,0.517-1.299,0.517c-0.539,0-0.971-0.175-1.288-0.517
		c-0.326-0.342-0.486-0.804-0.486-1.383V5.32h-0.435v3.156c0,0.731,0.197,1.313,0.595,1.733
		C26.857,10.639,27.398,10.855,28.073,10.855 M32.391,6.141l3.498,4.221h0.351V5.591h-0.377v4.155l-3.456-4.155H32.01v4.771h0.381
		V6.141z M37.974,10.432h0.405V5.655h-0.405V10.432z M41.813,10.512l2.003-4.856h-0.404L41.78,9.662l-1.612-4.007h-0.422l2.01,4.856
		H41.813z M47.568,10.105h-2.233v-1.94h2.106V7.858h-2.106V5.965h2.179v-0.31h-2.562v4.776h2.616V10.105z M49.63,8.136h0.385
		c0.273,0,0.475,0.022,0.607,0.056c0.136,0.029,0.246,0.096,0.335,0.182c0.062,0.065,0.143,0.167,0.251,0.318
		c0.105,0.144,0.239,0.335,0.383,0.567l0.755,1.173h0.429l-1.304-2.009c-0.055-0.088-0.119-0.168-0.181-0.231
		c-0.071-0.064-0.151-0.12-0.239-0.175c0.301-0.096,0.526-0.24,0.676-0.438c0.152-0.192,0.223-0.438,0.223-0.725
		c0-0.387-0.128-0.683-0.398-0.889s-0.65-0.31-1.15-0.31h-1.146v4.776h0.376V8.136z M49.63,5.983h0.794
		c0.356,0,0.627,0.067,0.825,0.228c0.191,0.151,0.286,0.366,0.286,0.643c0,0.201-0.038,0.374-0.124,0.511
		c-0.091,0.146-0.217,0.247-0.393,0.323c-0.095,0.042-0.209,0.074-0.349,0.099c-0.146,0.013-0.392,0.022-0.747,0.022H49.63V5.983z
		 M56.398,9.191c0-0.157-0.026-0.307-0.073-0.453c-0.058-0.143-0.135-0.27-0.233-0.38c-0.149-0.167-0.446-0.342-0.874-0.517
		c-0.048-0.023-0.079-0.033-0.104-0.049c-0.391-0.166-0.642-0.309-0.754-0.444c-0.121-0.127-0.178-0.303-0.178-0.509
		c0-0.256,0.087-0.47,0.27-0.645c0.184-0.166,0.415-0.254,0.699-0.254c0.176,0,0.352,0.031,0.526,0.094
		c0.186,0.062,0.366,0.169,0.565,0.303V5.909c-0.182-0.104-0.356-0.183-0.533-0.238c-0.175-0.046-0.356-0.08-0.54-0.08
		c-0.406,0-0.732,0.12-0.987,0.359c-0.255,0.237-0.381,0.54-0.381,0.903c0,0.302,0.08,0.552,0.248,0.743
		c0.166,0.189,0.476,0.381,0.93,0.568c0.438,0.184,0.716,0.343,0.836,0.479c0.127,0.144,0.18,0.32,0.18,0.534
		c0,0.294-0.085,0.522-0.27,0.697c-0.174,0.167-0.422,0.255-0.729,0.255c-0.184,0-0.385-0.047-0.574-0.128
		c-0.206-0.085-0.413-0.212-0.634-0.389v0.46c0.206,0.146,0.402,0.247,0.604,0.319c0.203,0.069,0.405,0.104,0.609,0.104
		c0.407,0,0.739-0.116,1.003-0.366C56.268,9.885,56.398,9.573,56.398,9.191 M58.324,5.655h-0.401v4.777h0.401V5.655z M62.643,10.32
		c0.263-0.071,0.485-0.181,0.693-0.334c0.294-0.222,0.522-0.498,0.692-0.84c0.166-0.343,0.243-0.719,0.243-1.106
		c0-0.391-0.077-0.757-0.243-1.106c-0.17-0.341-0.398-0.619-0.692-0.841c-0.208-0.151-0.431-0.264-0.687-0.334
		c-0.252-0.062-0.555-0.104-0.92-0.104h-1.639v4.776h1.639C62.087,10.432,62.389,10.393,62.643,10.32 M60.497,10.093V5.996h1.137
		c0.31,0,0.578,0.033,0.801,0.081c0.226,0.055,0.423,0.134,0.582,0.243c0.264,0.177,0.47,0.425,0.623,0.726
		c0.148,0.303,0.219,0.638,0.219,1.001c0,0.359-0.07,0.691-0.219,1.004c-0.153,0.302-0.359,0.541-0.623,0.725
		c-0.159,0.109-0.356,0.189-0.582,0.247c-0.223,0.046-0.491,0.07-0.801,0.07H60.497z M66.952,5.837l-1.964,4.595h0.383l0.668-1.59
		h1.977l0.671,1.59h0.382l-1.965-4.595H66.952z M66.164,8.532l0.869-2.065l0.858,2.065H66.164z M72.994,10.32
		c0.267-0.071,0.494-0.181,0.69-0.334c0.299-0.222,0.525-0.498,0.692-0.84c0.169-0.343,0.249-0.719,0.249-1.106
		c0-0.391-0.08-0.757-0.249-1.106c-0.167-0.341-0.394-0.619-0.692-0.841c-0.196-0.151-0.424-0.264-0.683-0.334
		c-0.255-0.062-0.556-0.104-0.922-0.104h-1.629v4.776h1.629C72.438,10.432,72.742,10.393,72.994,10.32 M70.847,10.093V5.996h1.14
		c0.309,0,0.579,0.033,0.802,0.081c0.224,0.055,0.423,0.134,0.58,0.243c0.265,0.177,0.47,0.425,0.62,0.726
		c0.152,0.303,0.222,0.638,0.222,1.001c0,0.359-0.069,0.691-0.222,1.004c-0.15,0.302-0.355,0.541-0.62,0.725
		c-0.157,0.109-0.356,0.189-0.58,0.247c-0.223,0.046-0.493,0.07-0.802,0.07H70.847z"/>
</g>
</svg>
