<?xml version="1.0" encoding="UTF-8"?>
<svg width="12px" height="12px" viewBox="0 0 12 12" version="1.1" xmlns="http://www.w3.org/2000/svg" xmlns:xlink="http://www.w3.org/1999/xlink">
    <!-- Generator: Sketch 48.1 (47250) - http://www.bohemiancoding.com/sketch -->
    <title>Shape</title>
    <desc>Created with Sketch.</desc>
    <defs></defs>
    <g id="header-top" stroke="none" stroke-width="1" fill="none" fill-rule="evenodd" transform="translate(-1252.000000, -15.000000)">
        <g fill="#7BC142" id="telefono">
            <g transform="translate(1252.000000, 11.000000)">
                <path d="M11.9551034,13.4658824 C11.9804483,13.6607266 11.9212759,13.8301384 11.7778345,13.9741176 L10.0937793,15.6512318 C10.0178069,15.7359377 9.91864138,15.808 9.79624138,15.8672318 C9.67384138,15.9265467 9.55357241,15.9646644 9.43543448,15.9815848 C9.4269931,15.9815848 9.4016069,15.9837647 9.35937931,15.988 C9.31723448,15.9922145 9.26236552,15.9943737 9.19483448,15.9943737 C9.0344069,15.9943737 8.77481379,15.9668443 8.41605517,15.9117647 C8.05729655,15.8566851 7.61836552,15.7211349 7.09926207,15.5051765 C6.58003448,15.2891765 5.99126897,14.9651349 5.33286207,14.5331765 C4.67445517,14.1012388 3.9738,13.5082561 3.23095862,12.7543529 C2.64006207,12.1698824 2.15046207,11.6108235 1.76215862,11.0771972 C1.37385517,10.5435294 1.06152414,10.0501176 0.825165517,9.59694118 C0.588786207,9.14376471 0.411517241,8.73294118 0.293337931,8.36447059 C0.175158621,7.996 0.0949655172,7.67835294 0.0527586207,7.41152941 C0.0105517241,7.14470588 -0.00633103448,6.93505882 0.00211034483,6.78258824 C0.0105517241,6.63011765 0.0147724138,6.54541176 0.0147724138,6.52847059 C0.0316551724,6.40988235 0.0696413793,6.28917647 0.128731034,6.16635294 C0.18782069,6.04352941 0.259572414,5.944 0.343986207,5.86776471 L2.02804138,4.17788235 C2.14622069,4.05929412 2.28128276,4 2.43322759,4 C2.54296552,4 2.64004138,4.03176471 2.72445517,4.09529412 C2.80886897,4.15882353 2.88062069,4.23717647 2.93971034,4.33035294 L4.29455172,6.90964706 C4.37052414,7.04517647 4.39162759,7.19341176 4.35786207,7.35435294 C4.32409655,7.51529412 4.25234483,7.65082353 4.1426069,7.76094118 L3.52216552,8.38352941 C3.50528276,8.40047059 3.49051034,8.428 3.47784828,8.46611765 C3.46518621,8.50423529 3.45885517,8.536 3.45885517,8.56141176 C3.49262069,8.73929412 3.5685931,8.94258824 3.68677241,9.17129412 C3.78806897,9.37458824 3.94423448,9.62235294 4.15526897,9.91458824 C4.36630345,10.2068235 4.66597241,10.5435087 5.05427586,10.9246851 C5.43413793,11.3143737 5.7717931,11.6171557 6.06724138,11.8331972 C6.36262759,12.0491142 6.60962069,12.208 6.8079931,12.3096471 C7.00636552,12.4112941 7.15831034,12.4727059 7.2638069,12.4938201 L7.42204138,12.5256055 C7.43892414,12.5256055 7.46642069,12.5192318 7.50436552,12.5065467 C7.54235172,12.4938201 7.56978621,12.4790173 7.58668966,12.4620554 L8.3084069,11.7251142 C8.46043448,11.5896055 8.63762069,11.5218408 8.84023448,11.5218408 C8.98377931,11.5218408 9.09767586,11.5472318 9.18208966,11.5980761 L9.19473103,11.5980761 L11.6384897,13.0465467 C11.8158207,13.1567474 11.9213172,13.2964706 11.9551034,13.4658824 L11.9551034,13.4658824 Z" id="Shape"></path>
            </g>
        </g>
    </g>
</svg>